<svg width="39" height="50" viewBox="0 0 39 50" fill="none" xmlns="http://www.w3.org/2000/svg">
<g filter="url(#filter0_i_4_158)">
<path d="M35.2017 22.7784C34.5628 21.9451 33.785 21.2228 33.0628 20.5006C31.2016 18.8339 29.0904 17.6394 27.3126 15.8893C23.1736 11.8337 22.2569 5.13904 24.8959 0C22.2569 0.638907 19.9513 2.08339 17.979 3.66677C10.7844 9.44471 7.95094 19.6395 11.3399 28.3897C11.451 28.6675 11.5622 28.9453 11.5622 29.3064C11.5622 29.9175 11.1455 30.4731 10.5899 30.6953C9.951 30.9731 9.28431 30.8064 8.75652 30.362C8.59792 30.2308 8.4659 30.0705 8.36762 29.8897C5.22864 25.9174 4.72862 20.2228 6.8398 15.6671C2.20078 19.445 -0.327074 25.8341 0.0340475 31.862C0.200719 33.2509 0.36739 34.6399 0.839626 36.0288C1.22853 37.6955 1.97855 39.3622 2.8119 40.8345C5.81199 45.6402 11.0066 49.0847 16.5901 49.7792C22.5347 50.5292 28.896 49.4459 33.4517 45.3346C38.5351 40.7234 40.313 33.3343 37.7018 27.0008L37.3407 26.2785C36.7573 25.0007 35.2017 22.7784 35.2017 22.7784ZM26.4237 40.2789C25.6459 40.9456 24.3681 41.6679 23.368 41.9456C20.2568 43.0568 17.1456 41.5012 15.3123 39.6678C18.6179 38.89 20.5902 36.4455 21.1735 33.9732C21.6458 31.7509 20.7569 29.9175 20.3957 27.7786C20.0624 25.723 20.118 23.9729 20.868 22.0562C21.3958 23.1118 21.9513 24.1674 22.618 25.0007C24.757 27.7786 28.1182 29.0008 28.8404 32.7787C28.9515 33.1676 29.0071 33.5565 29.0071 33.9732C29.0904 36.251 28.0904 38.7511 26.4237 40.2789Z" fill="url(#paint0_linear_4_158)"/>
</g>
<defs>
<filter id="filter0_i_4_158" x="0" y="0" width="38.8972" height="54" filterUnits="userSpaceOnUse" color-interpolation-filters="sRGB">
<feFlood flood-opacity="0" result="BackgroundImageFix"/>
<feBlend mode="normal" in="SourceGraphic" in2="BackgroundImageFix" result="shape"/>
<feColorMatrix in="SourceAlpha" type="matrix" values="0 0 0 0 0 0 0 0 0 0 0 0 0 0 0 0 0 0 127 0" result="hardAlpha"/>
<feOffset dy="4"/>
<feGaussianBlur stdDeviation="2"/>
<feComposite in2="hardAlpha" operator="arithmetic" k2="-1" k3="1"/>
<feColorMatrix type="matrix" values="0 0 0 0 0 0 0 0 0 0 0 0 0 0 0 0 0 0 0.5 0"/>
<feBlend mode="normal" in2="shape" result="effect1_innerShadow_4_158"/>
</filter>
<linearGradient id="paint0_linear_4_158" x1="19.4486" y1="0" x2="19.4486" y2="50" gradientUnits="userSpaceOnUse">
<stop stop-color="#FF6B00"/>
<stop offset="1" stop-color="#C86C00"/>
</linearGradient>
</defs>
</svg>
